<svg aria-hidden="true" style="position: absolute; width: 0; height: 0; overflow: hidden;" version="1.1" xmlns="http://www.w3.org/2000/svg" xmlns:xlink="http://www.w3.org/1999/xlink">
  <defs>
    <symbol id="icon-user-member-avatar-people-image-photo" viewBox="0 0 32 32">
      <path d="M20 24c0 0.736-0.597 1.333-1.333 1.333s-1.333-0.597-1.333-1.333c0-0.736 0.597-1.333 1.333-1.333s1.333 0.597 1.333 1.333z" class="circle" fill="#9c27b0" />
      <path d="M2.667 21.333h9.333v2.667h-12v-4c0-3.682 2.985-6.667 6.667-6.667v0h9.333c2.716 0.001 5.052 1.627 6.090 3.958l0.017 0.042h-3.133c-0.734-0.818-1.793-1.331-2.973-1.333h-9.334c-2.209 0-4 1.791-4 4v0zM5.333 6c0-3.314 2.686-6 6-6s6 2.686 6 6c0 3.314-2.686 6-6 6v0c-3.314 0-6-2.686-6-6v0zM8 6c0 1.841 1.492 3.333 3.333 3.333s3.333-1.492 3.333-3.333c0-1.841-1.492-3.333-3.333-3.333v0c-1.841 0-3.333 1.492-3.333 3.333v0zM32 18.667v13.333h-18.667v-13.333zM16 29.333h2.473l2.86-4 2 2.667 4-5.333 2 2.5v-3.833h-13.333z" class="main-path" fill="#1976d2" />
    </symbol>


    <symbol id="icon-exit" viewBox="0 0 32 32">
    <path opacity="0.24" d="M0.501 29.426l11.52 2.56c0.046 0.010 0.092 0.015 0.138 0.015 0.145 0 0.287-0.049 0.401-0.142 0.152-0.12 0.239-0.305 0.239-0.498v-1.92h10.88c0.355 0 0.64-0.287 0.64-0.64v-2.56c0-0.355-0.285-0.64-0.64-0.64h-11.52c-0.353 0-0.64 0.285-0.64 0.64v1.763l-10.74-2.388c-0.192-0.042-0.389 0.004-0.539 0.127-0.152 0.122-0.241 0.305-0.241 0.499v2.56c0 0.3 0.209 0.559 0.502 0.625z"></path>
    <path d="M31.951 16.25c0.065-0.157 0.065-0.333 0-0.49-0.032-0.077-0.079-0.148-0.138-0.209l-3.84-3.839c-0.25-0.25-0.655-0.25-0.905 0s-0.25 0.655 0 0.905l2.748 2.748h-13.815c-0.355 0-0.64 0.285-0.64 0.64 0 0.353 0.285 0.64 0.64 0.64h13.815l-2.748 2.747c-0.25 0.25-0.25 0.655 0 0.905 0.125 0.125 0.289 0.188 0.453 0.188s0.326-0.063 0.452-0.188l3.84-3.839c0.059-0.060 0.106-0.131 0.138-0.209v0zM11.521 28.806v-27.363l-10.24 2.276v24.572l10.24 2.277v-1.763zM24.32 19.846v8.96c0 0.353-0.287 0.64-0.64 0.64h-10.88v1.92c0 0.193-0.088 0.378-0.239 0.498-0.115 0.093-0.257 0.142-0.401 0.142-0.047 0-0.093-0.005-0.14-0.015l-11.52-2.56c-0.293-0.065-0.5-0.325-0.5-0.625v-25.6c0-0.301 0.207-0.561 0.5-0.626l11.52-2.56c0.188-0.041 0.388 0.005 0.54 0.127 0.151 0.122 0.239 0.305 0.239 0.499v1.92h10.88c0.353 0 0.64 0.285 0.64 0.64v8.96c0 0.353-0.287 0.64-0.64 0.64-0.355 0-0.64-0.287-0.64-0.64v-8.32h-10.24v24.32h10.24v-8.32c0-0.355 0.285-0.64 0.64-0.64 0.353 0 0.64 0.285 0.64 0.64v0zM10.241 14.726c0 0.353-0.287 0.64-0.64 0.64-0.355 0-0.64-0.287-0.64-0.64 0-0.355 0.285-0.64 0.64-0.64 0.353 0 0.64 0.285 0.64 0.64v0z"></path>
    </symbol>
  </defs>
</svg>
